<?xml version="1.0" encoding="UTF-8"?>
<svg version="1.1" xmlns="http://www.w3.org/2000/svg" width="500" height="500">
<path d="M0 0 C1.15218018 0.14477783 1.15218018 0.14477783 2.32763672 0.29248047 C13.60317672 1.75443573 24.08744619 4.65487932 34.84472656 8.28759766 C37.93672102 9.30962301 41.06189781 10.21186218 44.1875 11.125 C49.12719653 12.62893308 53.4562017 14.55981202 58 17 C58.99 17.33 59.98 17.66 61 18 C61 18.66 61 19.32 61 20 C61.86496094 20.09539063 62.72992188 20.19078125 63.62109375 20.2890625 C67.35461987 21.07461366 69.8173178 22.39020469 73.0625 24.375 C74.56490234 25.28378906 74.56490234 25.28378906 76.09765625 26.2109375 C77.53431641 27.09652344 77.53431641 27.09652344 79 28 C82.2370168 29.96287189 85.49860705 31.85743972 88.8125 33.6875 C89.60269531 34.12449219 90.39289063 34.56148437 91.20703125 35.01171875 C91.79871094 35.33785156 92.39039063 35.66398437 93 36 C93 36.66 93 37.32 93 38 C93.66 38.20625 94.32 38.4125 95 38.625 C99.07180186 40.49124252 102.68796998 42.97561527 106 46 C106 46.66 106 47.32 106 48 C106.73605469 48.2475 107.47210938 48.495 108.23046875 48.75 C111.26353941 50.11894585 112.99790209 51.62873585 115.3125 54 C116.35857422 55.051875 116.35857422 55.051875 117.42578125 56.125 C119 58 119 58 119 60 C118.34 60 117.68 60 117 60 C116.67 60.99 116.34 61.98 116 63 C115.34 63 114.68 63 114 63 C114 63.66 114 64.32 114 65 C113.34 65 112.68 65 112 65 C112 65.66 112 66.32 112 67 C111.34 67 110.68 67 110 67 C110 67.66 110 68.32 110 69 C109.34 69 108.68 69 108 69 C108 69.66 108 70.32 108 71 C107.34 71 106.68 71 106 71 C106 71.66 106 72.32 106 73 C105.34 73 104.68 73 104 73 C104 73.66 104 74.32 104 75 C102.625 76.625 102.625 76.625 101 78 C100.34 78 99.68 78 99 78 C99 78.66 99 79.32 99 80 C98.34 80 97.68 80 97 80 C97 80.66 97 81.32 97 82 C96.34 82 95.68 82 95 82 C95 82.66 95 83.32 95 84 C94.34 84 93.68 84 93 84 C93 84.66 93 85.32 93 86 C92.34 86 91.68 86 91 86 C91 86.66 91 87.32 91 88 C89.625 89.625 89.625 89.625 88 91 C87.34 91 86.68 91 86 91 C86 91.66 86 92.32 86 93 C85.34 93 84.68 93 84 93 C84 93.66 84 94.32 84 95 C82.125 97.125 82.125 97.125 80 99 C79.34 99 78.68 99 78 99 C78 99.66 78 100.32 78 101 C77.34 101 76.68 101 76 101 C76 101.66 76 102.32 76 103 C74.625 104.625 74.625 104.625 73 106 C72.34 106 71.68 106 71 106 C71 106.66 71 107.32 71 108 C70.34 108 69.68 108 69 108 C69 108.66 69 109.32 69 110 C68.34 110 67.68 110 67 110 C67 110.66 67 111.32 67 112 C66.34 112 65.68 112 65 112 C65 112.66 65 113.32 65 114 C64.34 114 63.68 114 63 114 C63 114.66 63 115.32 63 116 C61.625 117.625 61.625 117.625 60 119 C59.34 119 58.68 119 58 119 C58 119.66 58 120.32 58 121 C57.34 121 56.68 121 56 121 C56 121.66 56 122.32 56 123 C55.34 123 54.68 123 54 123 C54 123.66 54 124.32 54 125 C50.65750371 124.40312566 48.53563658 123.26396123 46 121 C46 120.34 46 119.68 46 119 C45.4225 118.71125 44.845 118.4225 44.25 118.125 C42.16666667 117.08333333 40.08333333 116.04166667 38 115 C38 114.34 38 113.68 38 113 C37.28585937 112.73703125 36.57171875 112.4740625 35.8359375 112.203125 C32.88846371 110.95268157 30.34250802 109.43987893 27.625 107.75 C8.3751079 96.4029435 -13.22971067 91.60817271 -35.4375 91.75 C-36.64470703 91.74226563 -37.85191406 91.73453125 -39.09570312 91.7265625 C-52.02671107 91.75423721 -63.91055089 93.49306916 -76.125 97.75 C-77.16615967 98.10634521 -78.20731934 98.46269043 -79.2800293 98.82983398 C-86.52415661 101.3607641 -93.37675022 104.08766176 -100 108 C-101.38638672 108.81404297 -101.38638672 108.81404297 -102.80078125 109.64453125 C-108.57304738 113.18134162 -113.83020768 117.13363111 -119.00390625 121.49609375 C-121 123 -121 123 -123 123 C-123 123.66 -123 124.32 -123 125 C-124.6796875 126.7265625 -124.6796875 126.7265625 -126.875 128.625 C-127.59429687 129.25664062 -128.31359375 129.88828125 -129.0546875 130.5390625 C-131 132 -131 132 -133 132 C-133.309375 132.61875 -133.61875 133.2375 -133.9375 133.875 C-134.625 135.25 -135.3125 136.625 -136 138 C-136.66 138 -137.32 138 -138 138 C-138.27457031 138.5878125 -138.54914063 139.175625 -138.83203125 139.78125 C-139.95622369 141.91683964 -141.18289658 143.62027628 -142.6875 145.5 C-146.11604222 149.94783856 -148.78375893 154.74161536 -151.484375 159.65625 C-152.23460937 160.81640625 -152.23460937 160.81640625 -153 162 C-153.66 162 -154.32 162 -155 162 C-155.0825 162.66 -155.165 163.32 -155.25 164 C-155.89384862 166.57539447 -156.59941335 168.31299956 -157.8125 170.625 C-173.59375291 201.16200924 -174.53831131 236.89932103 -165 269.375 C-163.31312347 274.40255359 -161.27176634 279.21239325 -159 284 C-157.19563044 287.94406443 -155.65457161 291.67982735 -155 296 C-154.34 296 -153.68 296 -153 296 C-151.6328125 297.9765625 -151.6328125 297.9765625 -150.125 300.625 C-149.32642578 301.99785156 -149.32642578 301.99785156 -148.51171875 303.3984375 C-147.76341797 304.68621094 -147.76341797 304.68621094 -147 306 C-144.91854191 309.27987336 -142.77446432 312.30832729 -140.25 315.25 C-138 318 -138 318 -138 320 C-137.34 320 -136.68 320 -136 320 C-133 323.46153846 -133 323.46153846 -133 326 C-132.195625 326.3403125 -132.195625 326.3403125 -131.375 326.6875 C-128.17539839 328.45570089 -125.70962777 330.53670203 -123 333 C-123 333.66 -123 334.32 -123 335 C-122.46890625 335.23460937 -121.9378125 335.46921875 -121.390625 335.7109375 C-118.91113011 337.04792004 -116.73117262 338.63339316 -114.48388672 340.32543945 C-106.47259233 346.32996213 -98.09832131 350.86614025 -89 355 C-87.40478516 355.72509766 -87.40478516 355.72509766 -85.77734375 356.46484375 C-69.87011854 363.36007049 -54.43244183 366.36800024 -37.11645508 366.26074219 C-35.06756903 366.25002651 -33.01956281 366.2607071 -30.97070312 366.2734375 C-3.72675662 366.30405923 20.91740868 358.01819944 43.46972656 342.93286133 C45.98188957 341.25624638 48.11585873 339.96138042 51 339 C51 338.34 51 337.68 51 337 C52.50390625 335.5546875 52.50390625 335.5546875 54.5625 333.875 C59.88158698 329.34671533 64.54810139 324.40357716 68.3125 318.5 C68.869375 317.675 69.42625 316.85 70 316 C70.66 316 71.32 316 72 316 C72 315.01 72 314.02 72 313 C72.66 313 73.32 313 74 313 C74.09539062 312.48695313 74.19078125 311.97390625 74.2890625 311.4453125 C75.26935561 308.0735351 76.84057673 305.02035082 78.375 301.875 C81.16948 296.02407963 83.37538584 290.28882901 85 284 C85.66 281.69 86.32 279.38 87 277 C46.41 277 5.82 277 -36 277 C-36 247.3 -36 217.6 -36 187 C-29.7391239 186.37391239 -23.80991297 185.85345958 -17.57136536 185.87301636 C-16.78527899 185.87145637 -15.99919262 185.86989638 -15.18928546 185.86828911 C-12.58816596 185.86434054 -9.98710613 185.86744473 -7.38598633 185.87060547 C-5.50739508 185.86924864 -3.6288041 185.86746713 -1.75021362 185.86529541 C3.33062451 185.86075299 8.41144225 185.86249791 13.49228072 185.8656745 C18.82772483 185.86821648 24.16316727 185.86585527 29.49861145 185.86428833 C38.46204947 185.86247121 47.42547925 185.86486014 56.38891602 185.86962891 C66.72029413 185.87506233 77.05165248 185.87331371 87.38303012 185.8678025 C96.27936031 185.86324841 105.1756846 185.86263228 114.07201558 185.86524117 C119.37364323 185.86679241 124.67526162 185.8670297 129.97688866 185.86370468 C134.96821506 185.86079281 139.95951628 185.86286194 144.95084 185.86859894 C146.77157487 185.86990924 148.5923119 185.86956225 150.41304588 185.86733627 C160.9898296 185.85560863 171.45527973 186.13264307 182 187 C183.10486108 190.31458324 183.53897353 193.41009795 184 196.875 C184.165 198.08929688 184.33 199.30359375 184.5 200.5546875 C188.18382829 231.46317171 187.70624739 265.64182531 179.58447266 295.82763672 C178.950948 298.18231609 178.35797603 300.54578268 177.76171875 302.91015625 C172.31338982 323.79706277 163.43731497 343.16841894 153 362 C152.34 362 151.68 362 151 362 C150.71125 362.7425 150.4225 363.485 150.125 364.25 C149.17697356 366.56739797 148.15154089 368.77917115 147 371 C146.34 371 145.68 371 145 371 C144.74605469 371.72574219 144.49210937 372.45148438 144.23046875 373.19921875 C142.91813483 376.18634071 141.38112843 378.29682024 139.3125 380.8125 C138.6009375 381.67875 137.889375 382.545 137.15625 383.4375 C127.59969789 394.79456193 127.59969789 394.79456193 123 399 C122.34 399 121.68 399 121 399 C120.34 400.32 119.68 401.64 119 403 C118.34 403 117.68 403 117 403 C117 403.66 117 404.32 117 405 C116.34 405 115.68 405 115 405 C114.73388916 405.60577881 114.46777832 406.21155762 114.19360352 406.83569336 C112.95191756 409.08718569 111.94138342 410.10684816 109.90234375 411.62890625 C108.96007935 412.33732666 108.96007935 412.33732666 107.9987793 413.06005859 C107.31855713 413.55586426 106.63833496 414.05166992 105.9375 414.5625 C105.23085205 415.08408691 104.5242041 415.60567383 103.79614258 416.14306641 C77.72429439 435.16963256 77.72429439 435.16963256 63.1484375 440.2265625 C60.45003091 441.19798887 57.82766478 442.31763576 55.1875 443.4375 C26.41914974 455.43924015 -3.38454774 460.23768396 -34.5 460.1875 C-35.19765472 460.18689575 -35.89530945 460.1862915 -36.61410522 460.18566895 C-55.24073556 460.14211714 -72.87715026 458.30555933 -91 454 C-91.73154297 453.83209961 -92.46308594 453.66419922 -93.21679688 453.49121094 C-100.46322783 451.82772207 -107.55214971 450.06768844 -114.40234375 447.1171875 C-116.98567435 446.00616111 -119.59893103 444.99497741 -122.22363281 443.98657227 C-131.10597548 440.54563392 -139.5427903 436.36938454 -148 432 C-148.66 431.67 -149.32 431.34 -150 431 C-150 430.34 -150 429.68 -150 429 C-150.66 428.938125 -151.32 428.87625 -152 428.8125 C-156.24540839 427.66270189 -159.3756973 425.44869819 -163 423 C-163.53882813 422.64244629 -164.07765625 422.28489258 -164.6328125 421.91650391 C-166.42790186 420.72389636 -168.21490476 419.52000742 -170 418.3125 C-170.88268555 417.7237207 -170.88268555 417.7237207 -171.78320312 417.12304688 C-173.22559426 416.13363808 -174.61808117 415.07225105 -176 414 C-176 413.34 -176 412.68 -176 412 C-176.56074219 411.74605469 -177.12148437 411.49210937 -177.69921875 411.23046875 C-184.5051075 407.59064709 -190.34846148 401.91592647 -195.625 396.34765625 C-196.97914865 394.88264041 -196.97914865 394.88264041 -199 394 C-199 393.34 -199 392.68 -199 392 C-199.66 392 -200.32 392 -201 392 C-202.4453125 390.56640625 -202.4453125 390.56640625 -204.125 388.5625 C-207.42396812 384.67689529 -210.79486379 380.86811146 -214.203125 377.078125 C-219 371.53043478 -219 371.53043478 -219 369 C-219.66 369 -220.32 369 -221 369 C-222.55063676 367.00931767 -223.97433156 365.03010263 -225.375 362.9375 C-225.778396 362.34348389 -226.18179199 361.74946777 -226.59741211 361.13745117 C-234 350.15146407 -234 350.15146407 -234 347 C-234.66 347 -235.32 347 -236 347 C-236.51949219 345.96101563 -237.03898437 344.92203125 -237.57421875 343.8515625 C-237.9096167 343.18108887 -238.24501465 342.51061523 -238.59057617 341.81982422 C-239.32745596 340.34540861 -240.06328049 338.87046517 -240.7980957 337.39501953 C-242.33192372 334.31790169 -243.87016218 331.24724437 -245.46875 328.203125 C-248.46793427 322.47391402 -250.68534196 316.6056841 -252.7890625 310.4921875 C-253.65477582 307.99558198 -254.55232595 305.53270994 -255.49609375 303.06640625 C-273.31166452 255.7395465 -271.55291375 197.09850149 -254 150 C-253.56429687 148.80375 -253.12859375 147.6075 -252.6796875 146.375 C-250.77600804 141.26812336 -248.81384696 136.66705261 -246 132 C-245.42767188 130.53242468 -244.88628018 129.05244275 -244.375 127.5625 C-242.07986883 121.62528811 -238.66538367 116.59987037 -235.16796875 111.32421875 C-233.43767144 108.67109621 -231.8621014 106.04140296 -230.375 103.25 C-227.67552059 98.2554928 -224.62667443 93.37576083 -221 89 C-220.34 89 -219.68 89 -219 89 C-218.61714844 88.15501953 -218.61714844 88.15501953 -218.2265625 87.29296875 C-214.10871394 79.5949525 -207.24545185 72.06952363 -201 66 C-200.34 66 -199.68 66 -199 66 C-198.64615234 65.14341797 -198.64615234 65.14341797 -198.28515625 64.26953125 C-194.15961657 56.98400374 -184.90816407 50.63025652 -178 46 C-177.34 46 -176.68 46 -176 46 C-176 45.34 -176 44.68 -176 44 C-173.92513234 42.41351061 -171.85806633 40.94396868 -169.6875 39.5 C-169.09259766 39.09652344 -168.49769531 38.69304688 -167.88476562 38.27734375 C-160.09066883 33 -160.09066883 33 -157 33 C-157 32.34 -157 31.68 -157 31 C-147.89972105 25.5508968 -138.84307428 20.9941261 -129 17 C-126.9373056 16.12545837 -124.874797 15.25047834 -122.8125 14.375 C-107.28646621 7.96872587 -91.77825184 3.42040374 -75.1875 0.75 C-74.17478027 0.58693359 -73.16206055 0.42386719 -72.11865234 0.25585938 C-48.35855831 -3.36340629 -23.80273658 -3.1432008 0 0 Z " fill="#35A854" transform="translate(286,21)"/>
<path d="M0 0 C1.15218018 0.14477783 1.15218018 0.14477783 2.32763672 0.29248047 C13.60317672 1.75443573 24.08744619 4.65487932 34.84472656 8.28759766 C37.93672102 9.30962301 41.06189781 10.21186218 44.1875 11.125 C49.12719653 12.62893308 53.4562017 14.55981202 58 17 C58.99 17.33 59.98 17.66 61 18 C61 18.66 61 19.32 61 20 C61.86496094 20.09539063 62.72992188 20.19078125 63.62109375 20.2890625 C67.35461987 21.07461366 69.8173178 22.39020469 73.0625 24.375 C74.56490234 25.28378906 74.56490234 25.28378906 76.09765625 26.2109375 C77.53431641 27.09652344 77.53431641 27.09652344 79 28 C82.2370168 29.96287189 85.49860705 31.85743972 88.8125 33.6875 C89.60269531 34.12449219 90.39289063 34.56148437 91.20703125 35.01171875 C91.79871094 35.33785156 92.39039063 35.66398437 93 36 C93 36.66 93 37.32 93 38 C93.66 38.20625 94.32 38.4125 95 38.625 C99.07180186 40.49124252 102.68796998 42.97561527 106 46 C106 46.66 106 47.32 106 48 C106.73605469 48.2475 107.47210938 48.495 108.23046875 48.75 C111.26353941 50.11894585 112.99790209 51.62873585 115.3125 54 C116.35857422 55.051875 116.35857422 55.051875 117.42578125 56.125 C119 58 119 58 119 60 C118.34 60 117.68 60 117 60 C116.67 60.99 116.34 61.98 116 63 C115.34 63 114.68 63 114 63 C114 63.66 114 64.32 114 65 C113.34 65 112.68 65 112 65 C112 65.66 112 66.32 112 67 C111.34 67 110.68 67 110 67 C110 67.66 110 68.32 110 69 C109.34 69 108.68 69 108 69 C108 69.66 108 70.32 108 71 C107.34 71 106.68 71 106 71 C106 71.66 106 72.32 106 73 C105.34 73 104.68 73 104 73 C104 73.66 104 74.32 104 75 C102.625 76.625 102.625 76.625 101 78 C100.34 78 99.68 78 99 78 C99 78.66 99 79.32 99 80 C98.34 80 97.68 80 97 80 C97 80.66 97 81.32 97 82 C96.34 82 95.68 82 95 82 C95 82.66 95 83.32 95 84 C94.34 84 93.68 84 93 84 C93 84.66 93 85.32 93 86 C92.34 86 91.68 86 91 86 C91 86.66 91 87.32 91 88 C89.625 89.625 89.625 89.625 88 91 C87.34 91 86.68 91 86 91 C86 91.66 86 92.32 86 93 C85.34 93 84.68 93 84 93 C84 93.66 84 94.32 84 95 C82.125 97.125 82.125 97.125 80 99 C79.34 99 78.68 99 78 99 C78 99.66 78 100.32 78 101 C77.34 101 76.68 101 76 101 C76 101.66 76 102.32 76 103 C74.625 104.625 74.625 104.625 73 106 C72.34 106 71.68 106 71 106 C71 106.66 71 107.32 71 108 C70.34 108 69.68 108 69 108 C69 108.66 69 109.32 69 110 C68.34 110 67.68 110 67 110 C67 110.66 67 111.32 67 112 C66.34 112 65.68 112 65 112 C65 112.66 65 113.32 65 114 C64.34 114 63.68 114 63 114 C63 114.66 63 115.32 63 116 C61.625 117.625 61.625 117.625 60 119 C59.34 119 58.68 119 58 119 C58 119.66 58 120.32 58 121 C57.34 121 56.68 121 56 121 C56 121.66 56 122.32 56 123 C55.34 123 54.68 123 54 123 C54 123.66 54 124.32 54 125 C50.65750371 124.40312566 48.53563658 123.26396123 46 121 C46 120.34 46 119.68 46 119 C45.4225 118.71125 44.845 118.4225 44.25 118.125 C42.16666667 117.08333333 40.08333333 116.04166667 38 115 C38 114.34 38 113.68 38 113 C37.28585937 112.73703125 36.57171875 112.4740625 35.8359375 112.203125 C32.88846371 110.95268157 30.34250802 109.43987893 27.625 107.75 C8.3751079 96.4029435 -13.22971067 91.60817271 -35.4375 91.75 C-36.64470703 91.74226563 -37.85191406 91.73453125 -39.09570312 91.7265625 C-52.02671107 91.75423721 -63.91055089 93.49306916 -76.125 97.75 C-77.16615967 98.10634521 -78.20731934 98.46269043 -79.2800293 98.82983398 C-86.52415661 101.3607641 -93.37675022 104.08766176 -100 108 C-101.38638672 108.81404297 -101.38638672 108.81404297 -102.80078125 109.64453125 C-108.57304738 113.18134162 -113.83020768 117.13363111 -119.00390625 121.49609375 C-121 123 -121 123 -123 123 C-123 123.66 -123 124.32 -123 125 C-124.6796875 126.7265625 -124.6796875 126.7265625 -126.875 128.625 C-127.59429687 129.25664062 -128.31359375 129.88828125 -129.0546875 130.5390625 C-131 132 -131 132 -133 132 C-133.309375 132.61875 -133.61875 133.2375 -133.9375 133.875 C-134.625 135.25 -135.3125 136.625 -136 138 C-136.66 138 -137.32 138 -138 138 C-138.27457031 138.5878125 -138.54914063 139.175625 -138.83203125 139.78125 C-139.95622369 141.91683964 -141.18289658 143.62027628 -142.6875 145.5 C-146.11604222 149.94783856 -148.78375893 154.74161536 -151.484375 159.65625 C-152.23460937 160.81640625 -152.23460937 160.81640625 -153 162 C-153.66 162 -154.32 162 -155 162 C-155.0825 162.66 -155.165 163.32 -155.25 164 C-155.89384862 166.57539447 -156.59941335 168.31299956 -157.8125 170.625 C-174.61324953 203.13475361 -173.75075291 239.65075678 -164 274 C-164.886875 274.226875 -165.77375 274.45375 -166.6875 274.6875 C-170.56841521 276.22522112 -172.11644351 277.98537276 -175 281 C-180.97461925 286.0424888 -187.23606467 290.74993022 -193.4453125 295.4987793 C-195.9212224 297.39295788 -198.36451808 299.30316355 -200.76171875 301.296875 C-203 303 -203 303 -205 303 C-205.33 303.99 -205.66 304.98 -206 306 C-207.8125 307.31640625 -207.8125 307.31640625 -210 308.5625 C-213.08502827 310.21374548 -213.08502827 310.21374548 -215 313 C-215.99 313 -216.98 313 -218 313 C-218 313.66 -218 314.32 -218 315 C-218.66 315 -219.32 315 -220 315 C-220 315.66 -220 316.32 -220 317 C-220.9075 317.4125 -221.815 317.825 -222.75 318.25 C-225.99301585 319.79546418 -225.99301585 319.79546418 -228.0625 322.0625 C-230.23373305 324.23373305 -232.11268203 325.03756068 -235 326 C-235 326.66 -235 327.32 -235 328 C-236.32 328.33 -237.64 328.66 -239 329 C-239 330.32 -239 331.64 -239 333 C-239 335 -239 337 -239 339 C-242.16295502 336.37044272 -243.32558607 333.31878187 -244.875 329.5625 C-245.1318457 328.94648926 -245.38869141 328.33047852 -245.65332031 327.69580078 C-246.4424047 325.799955 -247.22168741 323.90028924 -248 322 C-248.91553925 319.79119902 -249.83210966 317.58282499 -250.75 315.375 C-251.13671875 314.43398438 -251.5234375 313.49296875 -251.921875 312.5234375 C-252.92524343 310.07328477 -252.92524343 310.07328477 -254.015625 308.1015625 C-255.39265742 305.16170757 -256.14412043 302.12951386 -257 299 C-257.37898438 297.76507813 -257.75796875 296.53015625 -258.1484375 295.2578125 C-260.84162457 286.30307462 -262.7780036 277.36119112 -264.25 268.125 C-264.41290527 267.10422363 -264.57581055 266.08344727 -264.74365234 265.03173828 C-270.5295271 226.95318101 -267.49010018 186.19703898 -254 150 C-253.56429687 148.80375 -253.12859375 147.6075 -252.6796875 146.375 C-250.77600804 141.26812336 -248.81384696 136.66705261 -246 132 C-245.42767188 130.53242468 -244.88628018 129.05244275 -244.375 127.5625 C-242.07986883 121.62528811 -238.66538367 116.59987037 -235.16796875 111.32421875 C-233.43767144 108.67109621 -231.8621014 106.04140296 -230.375 103.25 C-227.67552059 98.2554928 -224.62667443 93.37576083 -221 89 C-220.34 89 -219.68 89 -219 89 C-218.61714844 88.15501953 -218.61714844 88.15501953 -218.2265625 87.29296875 C-214.10871394 79.5949525 -207.24545185 72.06952363 -201 66 C-200.34 66 -199.68 66 -199 66 C-198.64615234 65.14341797 -198.64615234 65.14341797 -198.28515625 64.26953125 C-194.15961657 56.98400374 -184.90816407 50.63025652 -178 46 C-177.34 46 -176.68 46 -176 46 C-176 45.34 -176 44.68 -176 44 C-173.92513234 42.41351061 -171.85806633 40.94396868 -169.6875 39.5 C-169.09259766 39.09652344 -168.49769531 38.69304688 -167.88476562 38.27734375 C-160.09066883 33 -160.09066883 33 -157 33 C-157 32.34 -157 31.68 -157 31 C-147.89972105 25.5508968 -138.84307428 20.9941261 -129 17 C-126.9373056 16.12545837 -124.874797 15.25047834 -122.8125 14.375 C-107.28646621 7.96872587 -91.77825184 3.42040374 -75.1875 0.75 C-74.17478027 0.58693359 -73.16206055 0.42386719 -72.11865234 0.25585938 C-48.35855831 -3.36340629 -23.80273658 -3.1432008 0 0 Z " fill="#E94335" transform="translate(286,21)"/>
<path d="M0 0 C0.80546113 -0.00155999 1.61092226 -0.00311998 2.44079131 -0.00472724 C5.14346335 -0.00871999 7.84607935 -0.00555411 10.54875183 -0.00241089 C12.48557061 -0.00376581 14.42238912 -0.00554626 16.35920715 -0.00772095 C21.6263448 -0.01228779 26.8934629 -0.01050789 32.1606009 -0.00734186 C37.68025913 -0.00481044 43.19991568 -0.00715836 48.71957397 -0.00872803 C58.00134074 -0.01054911 67.28309956 -0.00814677 76.56486511 -0.00338745 C87.26761416 0.00203743 97.9703441 0.00030521 108.67309266 -0.00521386 C117.87503179 -0.00976782 127.0769652 -0.01038386 136.27890509 -0.00777519 C141.76841684 -0.00622268 147.25791964 -0.00599001 152.7474308 -0.00931168 C157.9208896 -0.01222299 163.0943241 -0.01015539 168.2677803 -0.00441742 C170.15623751 -0.00310642 172.0446968 -0.00345534 173.93315315 -0.00568008 C184.6916351 -0.01717505 195.33966774 0.23699978 206.06510925 1.12698364 C207.16997033 4.44156688 207.60408278 7.53708159 208.06510925 11.00198364 C208.23010925 12.21628052 208.39510925 13.43057739 208.56510925 14.68167114 C212.24893754 45.59015536 211.77135664 79.76880895 203.64958191 109.95462036 C203.01605725 112.30929973 202.42308529 114.67276632 201.826828 117.03713989 C196.37849907 137.92404642 187.50242422 157.29540259 177.06510925 176.12698364 C176.40510925 176.12698364 175.74510925 176.12698364 175.06510925 176.12698364 C174.77635925 176.86948364 174.48760925 177.61198364 174.19010925 178.37698364 C173.24208281 180.69438161 172.21665014 182.90615479 171.06510925 185.12698364 C170.40510925 185.12698364 169.74510925 185.12698364 169.06510925 185.12698364 C168.81116394 185.85272583 168.55721863 186.57846802 168.295578 187.32620239 C166.98324409 190.31332435 165.44623769 192.42380388 163.37760925 194.93948364 C162.66604675 195.80573364 161.95448425 196.67198364 161.22135925 197.56448364 C151.66480714 208.92154558 151.66480714 208.92154558 147.06510925 213.12698364 C146.40510925 213.12698364 145.74510925 213.12698364 145.06510925 213.12698364 C144.40510925 214.44698364 143.74510925 215.76698364 143.06510925 217.12698364 C138.92184623 216.57108968 136.37752553 215.25047422 133.00260925 212.81448364 C132.16600769 212.22022583 131.32940613 211.62596802 130.467453 211.01370239 C128.06510925 209.12698364 128.06510925 209.12698364 126.1158905 207.16995239 C123.68649878 204.7498155 121.07332857 202.78849272 118.31510925 200.75198364 C117.25936707 199.96694458 116.20362488 199.18190552 115.1158905 198.37307739 C113.28497092 197.02508922 111.45024837 195.68221146 109.608078 194.34963989 C108.91327332 193.84303833 108.21846863 193.33643677 107.50260925 192.81448364 C106.90319519 192.38522583 106.30378113 191.95596802 105.686203 191.51370239 C104.06510925 190.12698364 104.06510925 190.12698364 102.49479675 188.02151489 C100.63960124 185.5631274 98.93074059 185.19326507 96.06510925 184.12698364 C92.75260925 182.18948364 92.75260925 182.18948364 90.06510925 180.12698364 C90.06510925 179.13698364 90.06510925 178.14698364 90.06510925 177.12698364 C89.22786316 176.98003052 89.22786316 176.98003052 88.373703 176.83010864 C81.60876053 174.76972007 75.88398336 169.07971536 71.06510925 164.12698364 C69.11339254 162.69478864 67.11749255 161.41568943 65.06510925 160.12698364 C67.5753863 157.52705384 70.05147766 155.13607137 73.06510925 153.12698364 C73.72510925 153.12698364 74.38510925 153.12698364 75.06510925 153.12698364 C75.06510925 152.46698364 75.06510925 151.80698364 75.06510925 151.12698364 C76.5690155 149.68167114 76.5690155 149.68167114 78.62760925 148.00198364 C83.94669623 143.47369898 88.61321064 138.53056081 92.37760925 132.62698364 C92.93448425 131.80198364 93.49135925 130.97698364 94.06510925 130.12698364 C94.72510925 130.12698364 95.38510925 130.12698364 96.06510925 130.12698364 C96.06510925 129.13698364 96.06510925 128.14698364 96.06510925 127.12698364 C96.72510925 127.12698364 97.38510925 127.12698364 98.06510925 127.12698364 C98.16049988 126.61393677 98.2558905 126.10088989 98.35417175 125.57229614 C99.33446486 122.20051874 100.90568598 119.14733446 102.44010925 116.00198364 C105.23458925 110.15106327 107.44049509 104.41581265 109.06510925 98.12698364 C109.72510925 95.81698364 110.38510925 93.50698364 111.06510925 91.12698364 C70.47510925 91.12698364 29.88510925 91.12698364 -11.93489075 91.12698364 C-11.93489075 61.42698364 -11.93489075 31.72698364 -11.93489075 1.12698364 C-7.84408638 0.10428255 -4.1728647 -0.01237149 0 0 Z " fill="#4386F4" transform="translate(261.9348907470703,206.87301635742188)"/>
<path d="M0 0 C0.33 0 0.66 0 1 0 C1 1.65 1 3.3 1 5 C0.34 5 -0.32 5 -1 5 C-1 5.99 -1 6.98 -1 8 C-0.071875 8.4640625 -0.071875 8.4640625 0.875 8.9375 C2.25 9.625 3.625 10.3125 5 11 C5 11.66 5 12.32 5 13 C5.99 13 6.98 13 8 13 C8 13.66 8 14.32 8 15 C8.57234375 15.2784375 9.1446875 15.556875 9.734375 15.84375 C11.96617566 16.98273792 14.10870874 18.19936383 16.25 19.5 C16.95640625 19.9228125 17.6628125 20.345625 18.390625 20.78125 C18.92171875 21.1834375 19.4528125 21.585625 20 22 C20 22.66 20 23.32 20 24 C20.66 24 21.32 24 22 24 C22 24.66 22 25.32 22 26 C22.99 26 23.98 26 25 26 C26.68873879 27.64429829 28.35305515 29.31384218 30 31 C31.3921875 31.8353125 31.3921875 31.8353125 32.8125 32.6875 C33.534375 33.120625 34.25625 33.55375 35 34 C35 34.66 35 35.32 35 36 C35.598125 36.28875 36.19625 36.5775 36.8125 36.875 C39 38 39 38 42 40 C42 40.66 42 41.32 42 42 C42.680625 42.226875 43.36125 42.45375 44.0625 42.6875 C47.6988709 44.31226146 51.02829263 46.32803257 54 49 C54 49.66 54 50.32 54 51 C54.71542969 51.2475 55.43085937 51.495 56.16796875 51.75 C59.31409706 53.13863595 61.63810963 54.84463946 64.3125 57 C65.63701172 58.051875 65.63701172 58.051875 66.98828125 59.125 C67.65214844 59.74375 68.31601563 60.3625 69 61 C69 61.66 69 62.32 69 63 C70.65 63.66 72.3 64.32 74 65 C74.495 63.515 74.495 63.515 75 62 C75.66 62 76.32 62 77 62 C76.505 60.02 76.505 60.02 76 58 C76.99 57.67 77.98 57.34 79 57 C77.2177238 63.4925776 77.2177238 63.4925776 76.0546875 66.203125 C73.79826933 72.1868117 72.75983317 78.59041646 71.45507812 84.83789062 C71.08453032 86.59839027 70.69368173 88.35460747 70.296875 90.109375 C65.95258325 111.5825885 70.10097995 134.21936117 76 155 C75.113125 155.226875 74.22625 155.45375 73.3125 155.6875 C69.43158479 157.22522112 67.88355649 158.98537276 65 162 C59.02538075 167.0424888 52.76393533 171.74993022 46.5546875 176.4987793 C44.0787776 178.39295788 41.63548192 180.30316355 39.23828125 182.296875 C37 184 37 184 35 184 C34.67 184.99 34.34 185.98 34 187 C32.1875 188.31640625 32.1875 188.31640625 30 189.5625 C26.91497173 191.21374548 26.91497173 191.21374548 25 194 C24.01 194 23.02 194 22 194 C22 194.66 22 195.32 22 196 C21.34 196 20.68 196 20 196 C20 196.66 20 197.32 20 198 C18.63875 198.61875 18.63875 198.61875 17.25 199.25 C14.00698415 200.79546418 14.00698415 200.79546418 11.9375 203.0625 C9.76626695 205.23373305 7.88731797 206.03756068 5 207 C5 207.66 5 208.32 5 209 C3.68 209.33 2.36 209.66 1 210 C1 211.32 1 212.64 1 214 C1 216 1 218 1 220 C-2.16295502 217.37044272 -3.32558607 214.31878187 -4.875 210.5625 C-5.1318457 209.94648926 -5.38869141 209.33047852 -5.65332031 208.69580078 C-6.4424047 206.799955 -7.22168741 204.90028924 -8 203 C-8.91553925 200.79119902 -9.83210966 198.58282499 -10.75 196.375 C-11.33007812 194.96347656 -11.33007812 194.96347656 -11.921875 193.5234375 C-12.92524343 191.07328477 -12.92524343 191.07328477 -14.015625 189.1015625 C-15.39265742 186.16170757 -16.14412043 183.12951386 -17 180 C-17.37898438 178.76507813 -17.75796875 177.53015625 -18.1484375 176.2578125 C-20.84162457 167.30307462 -22.7780036 158.36119112 -24.25 149.125 C-24.41290527 148.10422363 -24.57581055 147.08344727 -24.74365234 146.03173828 C-30.5295271 107.95318101 -27.49010018 67.19703898 -14 31 C-13.56429687 29.80375 -13.12859375 28.6075 -12.6796875 27.375 C-10.7760218 22.26816027 -8.81577405 17.66571531 -6 13 C-5.27677934 11.30647973 -4.5881274 9.59771385 -3.9375 7.875 C-2.81096301 4.89804683 -1.78327252 2.67490879 0 0 Z " fill="#F9BC06" transform="translate(46,140)"/>
<path d="M0 0 C0.33 0 0.66 0 1 0 C0.86164197 4.45859862 0.71305421 8.91679786 0.5625 13.375 C0.52318359 14.64601562 0.48386719 15.91703125 0.44335938 17.2265625 C0.40146484 18.43828125 0.35957031 19.65 0.31640625 20.8984375 C0.26141968 22.57945557 0.26141968 22.57945557 0.20532227 24.29443359 C0 27 0 27 -1 29 C-1.11726659 30.38817673 -1.17681406 31.78148714 -1.20532227 33.17431641 C-1.22526749 34.03505768 -1.24521271 34.89579895 -1.26576233 35.78262329 C-1.28247482 36.71287323 -1.29918732 37.64312317 -1.31640625 38.6015625 C-1.33718735 39.55316254 -1.35796844 40.50476257 -1.37937927 41.48519897 C-1.44488133 44.53172432 -1.5037628 47.57833743 -1.5625 50.625 C-1.60568459 52.68750916 -1.64929886 54.75000937 -1.69335938 56.8125 C-1.8005634 61.87490954 -1.90182902 66.93740755 -2 72 C-2.33 72 -2.66 72 -3 72 C-5.29032471 48.78249909 -6.10736529 22.73717775 0 0 Z " fill="#F1CA5A" transform="translate(23,205)"/>
<path d="M0 0 C0.33 0 0.66 0 1 0 C1 2.31 1 4.62 1 7 C0.01 7 -0.98 7 -2 7 C-2.309375 8.3303125 -2.309375 8.3303125 -2.625 9.6875 C-4.32893316 13.79242989 -6.49324495 15.33486616 -10 18 C-12.41681297 20.28254558 -14.14598457 22.21897685 -16 25 C-17.4375 26.6875 -17.4375 26.6875 -19 28 C-19.99 28 -20.98 28 -22 28 C-22 29.32 -22 30.64 -22 32 C-22.66 32 -23.32 32 -24 32 C-24 32.66 -24 33.32 -24 34 C-24.99 34 -25.98 34 -27 34 C-27 33.34 -27 32.68 -27 32 C-28.98 32.495 -28.98 32.495 -31 33 C-28.48972295 30.4000702 -26.0136316 28.00908773 -23 26 C-22.34 26 -21.68 26 -21 26 C-21 25.34 -21 24.68 -21 24 C-19.49609375 22.5546875 -19.49609375 22.5546875 -17.4375 20.875 C-12.11841302 16.34671533 -7.45189861 11.40357716 -3.6875 5.5 C-3.130625 4.675 -2.57375 3.85 -2 3 C-1.34 3 -0.68 3 0 3 C0 2.01 0 1.02 0 0 Z " fill="#6194E5" transform="translate(358,334)"/>
<path d="M0 0 C0.33 0.66 0.66 1.32 1 2 C0.36328125 3.75 0.36328125 3.75 -0.6875 6 C-5.407131 17.26832314 -7.20900797 29.98150084 -9 42 C-9.33 42 -9.66 42 -10 42 C-10.1294208 34.82433573 -9.80924019 27.79717283 -9.12109375 20.65234375 C-8.78510299 18.02350973 -8.78510299 18.02350973 -10 16 C-10.039992 14.00039988 -10.04346799 11.99952758 -10 10 C-6.535 9.505 -6.535 9.505 -3 9 C-3 7.68 -3 6.36 -3 5 C-2.34 5 -1.68 5 -1 5 C-1.33 3.68 -1.66 2.36 -2 1 C-1.34 0.67 -0.68 0.34 0 0 Z " fill="#F0BC43" transform="translate(124,197)"/>
<path d="M0 0 C0.33 0 0.66 0 1 0 C1.84399191 9.32022226 2.22678035 18.57998287 2.25 27.9375 C2.25233643 28.61433838 2.25467285 29.29117676 2.25708008 29.98852539 C2.27650221 45.11483639 0.83985936 59.99405484 -1 75 C-1.33 75 -1.66 75 -2 75 C-2.1050173 64.60328698 -2.02472362 54.35702803 -1 44 C-0.34 44 0.32 44 1 44 C0.96970703 43.16452637 0.93941406 42.32905273 0.90820312 41.46826172 C0.79439676 38.29612812 0.68286554 35.123924 0.57275391 31.95166016 C0.50201647 29.93255724 0.42877926 27.91354238 0.35546875 25.89453125 C0.05759206 17.25610734 -0.06066455 8.64301273 0 0 Z " fill="#91B6ED" transform="translate(470,226)"/>
<path d="M0 0 C0.33 0 0.66 0 1 0 C1.02578125 1.24910156 1.0515625 2.49820313 1.078125 3.78515625 C1.59765334 21.49900846 4.15480572 38.93170197 9 56 C8.01 56 7.02 56 6 56 C5.79503906 55.15695312 5.59007813 54.31390625 5.37890625 53.4453125 C5.10949219 52.34960938 4.84007813 51.25390625 4.5625 50.125 C4.16224609 48.48917969 4.16224609 48.48917969 3.75390625 46.8203125 C3.1213522 44.07515279 3.1213522 44.07515279 2 42 C-0.66988073 28.12441548 -0.20927483 14.06326873 0 0 Z " fill="#EDC551" transform="translate(113,239)"/>
<path d="M0 0 C0.33 0.99 0.66 1.98 1 3 C1.6599679 4.66933058 2.32558869 6.3364521 3 8 C-0.24509304 10.03977277 -3.40608886 11.66511872 -7 13 C-7 13.99 -7 14.98 -7 16 C-7.99 16.66 -8.98 17.32 -10 18 C-10.474375 19.175625 -10.94875 20.35125 -11.4375 21.5625 C-12.2109375 23.2640625 -12.2109375 23.2640625 -13 25 C-15.09765625 25.71484375 -15.09765625 25.71484375 -17 26 C-14.50958301 20.73181021 -11.75028053 15.92528249 -8.453125 11.12109375 C-7.17226924 9.25145752 -5.95854458 7.35403524 -4.75 5.4375 C-4.1725 4.633125 -3.595 3.82875 -3 3 C-2.34 3 -1.68 3 -1 3 C-0.67 2.01 -0.34 1.02 0 0 Z " fill="#E35A4E" transform="translate(68,107)"/>
<path d="M0 0 C25.08 0 50.16 0 76 0 C76 0.33 76 0.66 76 1 C74.91671921 1.01213028 74.91671921 1.01213028 73.81155396 1.02450562 C67.0131699 1.10237292 60.21496486 1.18963954 53.41684151 1.28752708 C49.92165234 1.33752173 46.42649386 1.38385113 42.93115234 1.421875 C38.91484293 1.46572544 34.89890513 1.52538959 30.8828125 1.5859375 C29.62445587 1.59748871 28.36609924 1.60903992 27.0696106 1.62094116 C25.90855804 1.64081085 24.74750549 1.66068054 23.55126953 1.68115234 C22.52534698 1.69447601 21.49942444 1.70779968 20.44241333 1.7215271 C17.82133597 1.7636954 17.82133597 1.7636954 16 4 C15.34 4 14.68 4 14 4 C14 3.01 14 2.02 14 1 C9.38 1 4.76 1 0 1 C0 0.67 0 0.34 0 0 Z " fill="#75A1EE" transform="translate(358,208)"/>
<path d="M0 0 C0.33 0 0.66 0 1 0 C1 1.65 1 3.3 1 5 C0.34 5 -0.32 5 -1 5 C-1 5.99 -1 6.98 -1 8 C-0.38125 8.309375 0.2375 8.61875 0.875 8.9375 C2.25 9.625 3.625 10.3125 5 11 C5 11.66 5 12.32 5 13 C2.36 12.34 -0.28 11.68 -3 11 C-2.9175 11.721875 -2.835 12.44375 -2.75 13.1875 C-3.07592705 16.8541793 -4.62533406 18.26553619 -7 21 C-7.33 21.99 -7.66 22.98 -8 24 C-8.66 24 -9.32 24 -10 24 C-10 25.65 -10 27.3 -10 29 C-10.66 29 -11.32 29 -12 29 C-11.5954162 23.87527186 -9.67441511 20.13540719 -7.3359375 15.66796875 C-5.61824604 12.23760832 -4.24753768 8.71581267 -2.89453125 5.12890625 C-2 3 -2 3 0 0 Z " fill="#F3AA42" transform="translate(46,140)"/>
<path d="M0 0 C1.134375 0.00902344 2.26875 0.01804687 3.4375 0.02734375 C4.283125 0.03894531 5.12875 0.05054687 6 0.0625 C6 0.3925 6 0.7225 6 1.0625 C-1.17946995 2.85925483 -8.18977054 3.64532219 -15.5625 4.1875 C-16.66658203 4.27386719 -17.77066406 4.36023438 -18.90820312 4.44921875 C-21.60508267 4.65936521 -24.30226714 4.86366248 -27 5.0625 C-27 5.7225 -27 6.3825 -27 7.0625 C-29.875 7.1875 -29.875 7.1875 -33 7.0625 C-33.66 6.4025 -34.32 5.7425 -35 5.0625 C-31.83432793 4.41172827 -28.66729923 3.7678016 -25.5 3.125 C-24.613125 2.94259766 -23.72625 2.76019531 -22.8125 2.57226562 C-15.17357233 1.02762952 -7.82611078 -0.08152199 0 0 Z " fill="#DF736B" transform="translate(230,19.9375)"/>
<path d="M0 0 C0.66 0 1.32 0 2 0 C2.59222907 3.01264352 3.05823431 5.92416977 3 9 C1.0625 11.5625 1.0625 11.5625 -1 13 C-1.99 12.67 -2.98 12.34 -4 12 C-4 11.34 -4 10.68 -4 10 C-4.66 9.67 -5.32 9.34 -6 9 C-6.33 9.99 -6.66 10.98 -7 12 C-7.33 10.68 -7.66 9.36 -8 8 C-7.38125 7.7525 -6.7625 7.505 -6.125 7.25 C-3.61104784 5.77120461 -3.1465949 4.62078835 -2 2 C-1.34 1.34 -0.68 0.68 0 0 Z " fill="#E84E44" transform="translate(91,81)"/>
<path d="M0 0 C1.70892588 0.45611901 3.41711229 0.91500891 5.125 1.375 C6.55199219 1.75785156 6.55199219 1.75785156 8.0078125 2.1484375 C10.0024186 2.71609302 11.98076741 3.34431196 13.9375 4.03125 C17.24828131 5.07853797 20.43949145 5.63421306 23.875 6.125 C25.02742188 6.29257812 26.17984375 6.46015625 27.3671875 6.6328125 C28.23601562 6.75398438 29.10484375 6.87515625 30 7 C30 7.33 30 7.66 30 8 C27.92092397 8.41761787 25.83643533 8.80835702 23.75 9.1875 C22.00976562 9.51814453 22.00976562 9.51814453 20.234375 9.85546875 C16.48841941 10.02286049 15.70277254 9.43190645 13 7 C10.66989091 6.32215008 8.33640176 5.65583207 6 5 C1.26470588 2.52941176 1.26470588 2.52941176 0 0 Z " fill="#5AB075" transform="translate(205,380)"/>
<path d="M0 0 C1.45295405 8.19256018 1.45295405 8.19256018 -0.4375 11.5625 C-0.953125 12.036875 -1.46875 12.51125 -2 13 C-2.66 12.01 -3.32 11.02 -4 10 C-4.99 9.67 -5.98 9.34 -7 9 C-7.33 9.99 -7.66 10.98 -8 12 C-8.32332002 7.36574638 -7.8644432 4.71316711 -5 1 C-2 0 -2 0 0 0 Z " fill="#E55345" transform="translate(55,132)"/>
<path d="M0 0 C9.3221055 0.40530893 17.97664953 1.64503769 27 4 C28.60393987 4.39675134 30.20806965 4.79273682 31.8125 5.1875 C32.864375 5.455625 33.91625 5.72375 35 6 C34.67 6.66 34.34 7.32 34 8 C31.68682039 7.69257097 29.37446648 7.37892298 27.0625 7.0625 C25.77472656 6.88847656 24.48695313 6.71445312 23.16015625 6.53515625 C20 6 20 6 19 5 C17.50503158 4.79300437 16.0033408 4.63320741 14.5 4.5 C10.11111111 4.11111111 10.11111111 4.11111111 9 3 C7.48530552 2.76807135 5.96245438 2.58784762 4.4375 2.4375 C3.61121094 2.35371094 2.78492188 2.26992188 1.93359375 2.18359375 C1.29550781 2.12300781 0.65742188 2.06242187 0 2 C0 1.34 0 0.68 0 0 Z " fill="#E17772" transform="translate(279,21)"/>
<path d="M0 0 C0.66 0.33 1.32 0.66 2 1 C-1.32307692 5.8 -1.32307692 5.8 -4.75 6.8125 C-5.4925 6.874375 -6.235 6.93625 -7 7 C-7.1546875 7.928125 -7.1546875 7.928125 -7.3125 8.875 C-8 11 -8 11 -11 13 C-11.268125 13.680625 -11.53625 14.36125 -11.8125 15.0625 C-12.204375 15.701875 -12.59625 16.34125 -13 17 C-15.875 17.625 -15.875 17.625 -19 18 C-21.28480253 18.97348627 -21.28480253 18.97348627 -23 20 C-22.25 18.0625 -22.25 18.0625 -21 16 C-18.875 15.25 -18.875 15.25 -17 15 C-17 14.34 -17 13.68 -17 13 C-15.9275 12.4225 -14.855 11.845 -13.75 11.25 C-11.36314992 9.90049322 -9.77858337 8.77858337 -7.8125 6.8125 C-5.85311036 4.85311036 -4.70231559 4.38604508 -2 4 C-2 3.34 -2 2.68 -2 2 C-1.34 2 -0.68 2 0 2 C0 1.34 0 0.68 0 0 Z " fill="#52A33C" transform="translate(68,334)"/>
<path d="M0 0 C0.99 0.33 1.98 0.66 3 1 C2.34 1 1.68 1 1 1 C1 1.66 1 2.32 1 3 C-10.34550092 8.67275046 -28.69145267 6.12448457 -41 5 C-41 4.67 -41 4.34 -41 4 C-40.31599121 3.98018066 -39.63198242 3.96036133 -38.92724609 3.93994141 C-18.98488277 4.48409042 -18.98488277 4.48409042 0 0 Z " fill="#7DC491" transform="translate(283,384)"/>
<path d="M0 0 C2.1875 -0.3125 2.1875 -0.3125 5 0 C7.8125 2.375 7.8125 2.375 10 5 C10 5.66 10 6.32 10 7 C9.34 7 8.68 7 8 7 C7.67 7.99 7.34 8.98 7 10 C6.34 10 5.68 10 5 10 C5 10.66 5 11.32 5 12 C4.34 12 3.68 12 3 12 C2.67 12.66 2.34 13.32 2 14 C1.875 7.375 1.875 7.375 3 4 C2.01 4 1.02 4 0 4 C0 2.68 0 1.36 0 0 Z " fill="#E54E42" transform="translate(395,74)"/>
<path d="M0 0 C5.0353859 -0.04954963 10.0706289 -0.08579037 15.10620117 -0.10986328 C16.81814039 -0.11990208 18.53006255 -0.13353595 20.24194336 -0.15087891 C22.70691142 -0.17522073 25.17165215 -0.18650438 27.63671875 -0.1953125 C28.77919319 -0.21079636 28.77919319 -0.21079636 29.94474792 -0.22659302 C34.08082741 -0.22746036 37.2812059 0.14221003 41 2 C41 2.66 41 3.32 41 4 C40.13503906 3.86722656 39.27007812 3.73445313 38.37890625 3.59765625 C25.62293185 1.80894745 12.86561415 1.37858147 0 1 C0 0.67 0 0.34 0 0 Z " fill="#E8847A" transform="translate(240,111)"/>
<path d="M0 0 C2 3 2 3 3.25 6.625 C4.11625 8.295625 4.11625 8.295625 5 10 C8.08369887 11.05749557 8.08369887 11.05749557 11 11 C10.01 11.495 10.01 11.495 9 12 C9 13.32 9 14.64 9 16 C9 18 9 20 9 22 C5.73965243 19.33510513 4.43313836 15.85605798 2.875 12.0625 C2.61074219 11.44181641 2.34648438 10.82113281 2.07421875 10.18164062 C-0.52491973 3.98724713 -0.52491973 3.98724713 -1 1 C-0.67 0.67 -0.34 0.34 0 0 Z " fill="#D0C662" transform="translate(38,338)"/>
<path d="M0 0 C1.5 1.25 1.5 1.25 3 3 C3 4.32 3 5.64 3 7 C3.66 7 4.32 7 5 7 C6.3671875 8.94140625 6.3671875 8.94140625 7.875 11.5625 C8.66390625 12.92181641 8.66390625 12.92181641 9.46875 14.30859375 C9.9740625 15.19675781 10.479375 16.08492188 11 17 C11.4228125 17.73347656 11.845625 18.46695312 12.28125 19.22265625 C13.19451779 20.81108987 14.09842281 22.40490189 15 24 C12.625 23.75 12.625 23.75 10 23 C7.90137502 20.10189884 8 18.71621139 8 15 C7.38125 14.7525 6.7625 14.505 6.125 14.25 C2.74963396 12.26449057 2.2020372 9.60611161 1 6 C1.33 5.34 1.66 4.68 2 4 C1.34 4 0.68 4 0 4 C0 2.68 0 1.36 0 0 Z " fill="#78BD8D" transform="translate(128,310)"/>
<path d="M0 0 C2.31 0 4.62 0 7 0 C7 0.99 7 1.98 7 3 C9.64 3 12.28 3 15 3 C15 3.66 15 4.32 15 5 C17.97 5.99 20.94 6.98 24 8 C24 8.66 24 9.32 24 10 C17.82341806 8.90415482 12.88805625 7.18183407 7.359375 4.21875 C4.95550785 2.9770173 2.52526817 1.96712398 0 1 C0 0.67 0 0.34 0 0 Z " fill="#69B57F" transform="translate(148,457)"/>
<path d="M0 0 C0.33 0.66 0.66 1.32 1 2 C0.67 2.66 0.34 3.32 0 4 C-0.66 4 -1.32 4 -2 4 C-2 5.32 -2 6.64 -2 8 C-2.33 8.66 -2.66 9.32 -3 10 C-4.99145086 10.29382062 -6.98536906 10.57988001 -8.98828125 10.78125 C-11.05826513 11.00633563 -13.00142737 11.41708298 -15 12 C-13.71034824 10.62437146 -12.37310707 9.29233607 -11 8 C-10.34 8 -9.68 8 -9 8 C-9 7.34 -9 6.68 -9 6 C-7.03125 4.4921875 -7.03125 4.4921875 -4.5 2.875 C-3.24703125 2.06675781 -3.24703125 2.06675781 -1.96875 1.2421875 C-0.99421875 0.62730469 -0.99421875 0.62730469 0 0 Z " fill="#E05E52" transform="translate(119,59)"/>
<path d="M0 0 C4.01406285 1.72031265 7.24923105 4.38585249 10.625 7.125 C7.625 7.125 7.625 7.125 4.625 6.125 C4.625 5.465 4.625 4.805 4.625 4.125 C3.366875 4.269375 2.10875 4.41375 0.8125 4.5625 C-0.24904297 4.68431641 -0.24904297 4.68431641 -1.33203125 4.80859375 C-3.56896393 5.09670735 -3.56896393 5.09670735 -6.375 6.125 C-7.035 5.465 -7.695 4.805 -8.375 4.125 C-3.22089041 0.16952055 -3.22089041 0.16952055 0 0 Z " fill="#54AD7C" transform="translate(327.375,366.875)"/>
<path d="M0 0 C1.32 0.33 2.64 0.66 4 1 C3.731875 1.86625 3.46375 2.7325 3.1875 3.625 C2.98160412 7.33112587 3.17846588 7.70984739 5.4375 10.375 C6.7059375 11.674375 6.7059375 11.674375 8 13 C7.01 13.495 7.01 13.495 6 14 C6 13.34 6 12.68 6 12 C5.01 12 4.02 12 3 12 C3 11.34 3 10.68 3 10 C2.38125 9.690625 1.7625 9.38125 1.125 9.0625 C-0.25 8.375 -1.625 7.6875 -3 7 C-3 6.01 -3 5.02 -3 4 C-2.34 3.67 -1.68 3.34 -1 3 C-0.67 2.01 -0.34 1.02 0 0 Z " fill="#E44A29" transform="translate(48,141)"/>
<path d="M0 0 C0.99 0 1.98 0 3 0 C3 0.66 3 1.32 3 2 C2.34 2 1.68 2 1 2 C0.79632813 2.56203125 0.59265625 3.1240625 0.3828125 3.703125 C-1.51091832 6.84864398 -4.18662818 8.65700661 -7.125 10.75 C-7.96998047 11.36681641 -7.96998047 11.36681641 -8.83203125 11.99609375 C-10.21601634 13.00476085 -11.60730541 14.00339286 -13 15 C-13.66 14.67 -14.32 14.34 -15 14 C-14.67 13.01 -14.34 12.02 -14 11 C-13.34 11.33 -12.68 11.66 -12 12 C-11.67 11.01 -11.34 10.02 -11 9 C-10.01 9 -9.02 9 -8 9 C-8 8.34 -8 7.68 -8 7 C-7.01 7 -6.02 7 -5 7 C-5.33 6.01 -5.66 5.02 -6 4 C-4.02 3.67 -2.04 3.34 0 3 C0 2.01 0 1.02 0 0 Z " fill="#72B788" transform="translate(400,424)"/>
<path d="M0 0 C-6.29060151 5.05612021 -12.61443147 10.06429485 -19 15 C-19.66 14.67 -20.32 14.34 -21 14 C-19.625 12.5 -19.625 12.5 -18 11 C-17.34 11 -16.68 11 -16 11 C-16 10.01 -16 9.02 -16 8 C-15.01 8 -14.02 8 -13 8 C-13 7.34 -13 6.68 -13 6 C-12.01 6 -11.02 6 -10 6 C-10 4.35 -10 2.7 -10 1 C-9.67 1.66 -9.34 2.32 -9 3 C-8.01 3 -7.02 3 -6 3 C-6 2.01 -6 1.02 -6 0 C-2.25 -1.125 -2.25 -1.125 0 0 Z " fill="#D8C022" transform="translate(102,309)"/>
<path d="M0 0 C-2.83591833 1.59877275 -4.82740658 2.17954424 -8.0625 2.25 C-16.0605625 2.86338524 -23.6408284 5.90376776 -31.1875 8.46508789 C-33 9 -33 9 -35 9 C-35 8.34 -35 7.68 -35 7 C-31.535 6.505 -31.535 6.505 -28 6 C-28 5.34 -28 4.68 -28 4 C-27.28972656 3.86722656 -26.57945312 3.73445313 -25.84765625 3.59765625 C-24.92855469 3.42105469 -24.00945312 3.24445313 -23.0625 3.0625 C-22.14597656 2.88847656 -21.22945312 2.71445313 -20.28515625 2.53515625 C-18.04710156 2.22285012 -18.04710156 2.22285012 -17 1 C-15.08887553 0.76257503 -13.17015727 0.58502428 -11.25 0.4375 C-9.67992187 0.31181641 -9.67992187 0.31181641 -8.078125 0.18359375 C-5.37463715 0.02234511 -2.70709587 -0.03509198 0 0 Z " fill="#E58F87" transform="translate(236,112)"/>
<path d="M0 0 C1.65 0 3.3 0 5 0 C5 0.99 5 1.98 5 3 C4.34 2.67 3.68 2.34 3 2 C2.67 3.65 2.34 5.3 2 7 C2.99 7.33 3.98 7.66 5 8 C8 11.44444444 8 11.44444444 8 14 C7.34 14 6.68 14 6 14 C6 13.34 6 12.68 6 12 C5.34 12 4.68 12 4 12 C2.30859375 10.3203125 2.30859375 10.3203125 0.4375 8.125 C-0.49255859 7.04605469 -0.49255859 7.04605469 -1.44140625 5.9453125 C-3 4 -3 4 -4 2 C-2.68 1.67 -1.36 1.34 0 1 C0 0.67 0 0.34 0 0 Z " fill="#4CAE67" transform="translate(81,401)"/>
<path d="M0 0 C0 0.66 0 1.32 0 2 C-0.66 2 -1.32 2 -2 2 C-2 2.66 -2 3.32 -2 4 C-3.375 5.625 -3.375 5.625 -5 7 C-5.66 7 -6.32 7 -7 7 C-7 7.66 -7 8.32 -7 9 C-7.66 9 -8.32 9 -9 9 C-9 9.66 -9 10.32 -9 11 C-9.66 11 -10.32 11 -11 11 C-11.33 11.66 -11.66 12.32 -12 13 C-12 11.35 -12 9.7 -12 8 C-11.34 8 -10.68 8 -10 8 C-9.67 7.01 -9.34 6.02 -9 5 C-8.34 5.33 -7.68 5.66 -7 6 C-7.33 4.68 -7.66 3.36 -8 2 C-4.91190305 0.23537317 -3.76687864 0 0 0 Z " fill="#E36E65" transform="translate(392,92)"/>
<path d="M0 0 C1.32 0.33 2.64 0.66 4 1 C3.01 2.485 3.01 2.485 2 4 C1.01 4 0.02 4 -1 4 C-1 5.32 -1 6.64 -1 8 C-1.66 8 -2.32 8 -3 8 C-3 8.66 -3 9.32 -3 10 C-3.99 10 -4.98 10 -6 10 C-6 9.34 -6 8.68 -6 8 C-7.32 8.33 -8.64 8.66 -10 9 C-7.48972295 6.4000702 -5.0136316 4.00908773 -2 2 C-1.34 2 -0.68 2 0 2 C0 1.34 0 0.68 0 0 Z " fill="#6599E9" transform="translate(337,358)"/>
<path d="M0 0 C-2.54056764 2.80845063 -5.42973578 4.67675985 -8.625 6.6875 C-9.60726562 7.31011719 -10.58953125 7.93273437 -11.6015625 8.57421875 C-14 10 -14 10 -15 10 C-15 8.35 -15 6.7 -15 5 C-13.35 5 -11.7 5 -10 5 C-10 4.34 -10 3.68 -10 3 C-9.34 3 -8.68 3 -8 3 C-8 2.34 -8 1.68 -8 1 C-5.29120665 -0.35439668 -2.99066732 -0.06501451 0 0 Z " fill="#E1736B" transform="translate(186,128)"/>
<path d="M0 0 C0.66 0.33 1.32 0.66 2 1 C1.01 2.485 1.01 2.485 0 4 C-2.625 4.1875 -2.625 4.1875 -5 4 C-5.1546875 4.928125 -5.1546875 4.928125 -5.3125 5.875 C-6 8 -6 8 -9 10 C-11.33199388 10.07905064 -13.66832622 10.08798769 -16 10 C-11.30665522 5.79217365 -5.75353924 2.54786359 0 0 Z " fill="#E27C73" transform="translate(149,41)"/>
<path d="M0 0 C0.33 1.32 0.66 2.64 1 4 C0.01 4.495 0.01 4.495 -1 5 C-1 5.99 -1 6.98 -1 8 C-1.99 8.66 -2.98 9.32 -4 10 C-4.474375 11.175625 -4.94875 12.35125 -5.4375 13.5625 C-5.953125 14.696875 -6.46875 15.83125 -7 17 C-9.09765625 17.71484375 -9.09765625 17.71484375 -11 18 C-4.72413793 4.72413793 -4.72413793 4.72413793 0 0 Z " fill="#E58178" transform="translate(62,115)"/>
<path d="M0 0 C3.01957634 1.00652545 4.82130922 1.81589435 7.0625 4.125 C9.02970029 6.46361429 9.02970029 6.46361429 13 6 C14.484375 7.75 14.484375 7.75 15.75 10 C16.17796875 10.7425 16.6059375 11.485 17.046875 12.25 C17.36140625 12.8275 17.6759375 13.405 18 14 C16.35 13.34 14.7 12.68 13 12 C13 11.34 13 10.68 13 10 C11.9171875 9.62875 11.9171875 9.62875 10.8125 9.25 C6.55190454 7.35640202 3.12092263 4.44944081 0 1 C0 0.67 0 0.34 0 0 Z " fill="#E1511F" transform="translate(87,179)"/>
<path d="M0 0 C2 1 4 2 6 3 C6 3.66 6 4.32 6 5 C7.11375 5.103125 8.2275 5.20625 9.375 5.3125 C11.169375 5.6528125 11.169375 5.6528125 13 6 C13.99 7.485 13.99 7.485 15 9 C15.99 9 16.98 9 18 9 C17.67 9.99 17.34 10.98 17 12 C12.84316735 11.44028286 10.22467722 10.09822127 6.8125 7.6875 C5.95269531 7.09324219 5.09289062 6.49898438 4.20703125 5.88671875 C2.01502983 4.01284851 1.04794707 2.65206716 0 0 Z " fill="#4C92D4" transform="translate(388,412)"/>
<path d="M0 0 C0.33 0.66 0.66 1.32 1 2 C2.31216227 2.70742661 3.64987672 3.3680274 5 4 C6.42831735 4.81320258 7.84524447 5.64674108 9.25 6.5 C9.95640625 6.9228125 10.6628125 7.345625 11.390625 7.78125 C11.92171875 8.1834375 12.4528125 8.585625 13 9 C13 9.66 13 10.32 13 11 C13.66 11 14.32 11 15 11 C15 11.66 15 12.32 15 13 C15.99 13 16.98 13 18 13 C18 13.66 18 14.32 18 15 C16.68 14.67 15.36 14.34 14 14 C14 13.34 14 12.68 14 12 C12.02 11.34 10.04 10.68 8 10 C8 9.34 8 8.68 8 8 C7.4225 7.71125 6.845 7.4225 6.25 7.125 C4.16666667 6.08333333 2.08333333 5.04166667 0 4 C0 2.68 0 1.36 0 0 Z " fill="#FCA61E" transform="translate(53,153)"/>
<path d="M0 0 C1.76374463 3.52748926 0.08101456 7.35471833 -1 11 C-2.5 14.0625 -2.5 14.0625 -4 16 C-4.66 16 -5.32 16 -6 16 C-6 17.65 -6 19.3 -6 21 C-6.66 21 -7.32 21 -8 21 C-7.59169746 15.82816777 -5.63802101 11.96975313 -3.25390625 7.46484375 C-2.01113481 5.02188805 -0.98035868 2.5580522 0 0 Z " fill="#F1CB60" transform="translate(42,148)"/>
<path d="M0 0 C2 2 2 2 2.125 5.125 C2.08375 6.07375 2.0425 7.0225 2 8 C2.66 8 3.32 8 4 8 C4.33808686 10.06172613 4.67027361 12.1244203 5 14.1875 C5.185625 15.33605469 5.37125 16.48460937 5.5625 17.66796875 C5.93489477 20.50415393 6.08596021 23.14719564 6 26 C1.06057034 18.59085551 0.49675678 8.70180835 0 0 Z " fill="#F2D374" transform="translate(23,291)"/>
<path d="M0 0 C1.258125 0.12375 2.51625 0.2475 3.8125 0.375 C4.87404297 0.47941406 4.87404297 0.47941406 5.95703125 0.5859375 C8 1 8 1 11 3 C11 3.66 11 4.32 11 5 C11.66 5.33 12.32 5.66 13 6 C12.67 6.99 12.34 7.98 12 9 C10.948125 8.236875 9.89625 7.47375 8.8125 6.6875 C6.59639539 5.09748999 4.41052456 3.64882314 2.0625 2.25 C1.381875 1.8375 0.70125 1.425 0 1 C0 0.67 0 0.34 0 0 Z " fill="#DE6960" transform="translate(308,124)"/>
<path d="M0 0 C0.33 1.32 0.66 2.64 1 4 C3.86724686 3.42655063 4.8614515 3.1385485 7 1 C7.99 1.33 8.98 1.66 10 2 C6.7 4.64 3.4 7.28 0 10 C-0.66 9.67 -1.32 9.34 -2 9 C-2.125 5.625 -2.125 5.625 -2 2 C-1.34 1.34 -0.68 0.68 0 0 Z " fill="#DCBE1D" transform="translate(104,298)"/>
<path d="M0 0 C0.66 0.33 1.32 0.66 2 1 C-4.19417897 8.96090356 -4.19417897 8.96090356 -9 10 C-9.99 9.67 -10.98 9.34 -12 9 C-8.04 6.03 -4.08 3.06 0 0 Z " fill="#55A338" transform="translate(93,315)"/>
<path d="M0 0 C0.33 0 0.66 0 1 0 C0.88610125 1.79240663 0.75852313 3.58394835 0.625 5.375 C0.55539063 6.37273437 0.48578125 7.37046875 0.4140625 8.3984375 C0 11 0 11 -2 13 C-2.6425235 15.06874034 -2.6425235 15.06874034 -3 17 C-3.66 17 -4.32 17 -5 17 C-4.35083537 10.99522721 -2.14204997 5.599219 0 0 Z " fill="#F2D067" transform="translate(33,169)"/>
<path d="M0 0 C2.64 0 5.28 0 8 0 C6.33784732 1.33895632 4.67036393 2.67130142 3 4 C1.9171875 4.86625 1.9171875 4.86625 0.8125 5.75 C-1 7 -1 7 -3 7 C-3 6.01 -3 5.02 -3 4 C-2.34 4 -1.68 4 -1 4 C-0.67 2.68 -0.34 1.36 0 0 Z " fill="#5BB072" transform="translate(372,443)"/>
<path d="M0 0 C5.28798182 0.41474367 8.11690718 1.35224614 12 5 C11.67 5.99 11.34 6.98 11 8 C9.35048774 7.04801289 7.70548492 6.08820855 6.0625 5.125 C5.14597656 4.59132813 4.22945313 4.05765625 3.28515625 3.5078125 C1 2 1 2 0 0 Z " fill="#6AB883" transform="translate(119,440)"/>
<path d="M0 0 C0.33 0.99 0.66 1.98 1 3 C2.32 3 3.64 3 5 3 C5.33 5.97 5.66 8.94 6 12 C5.34 11.67 4.68 11.34 4 11 C4 10.34 4 9.68 4 9 C3.34 9 2.68 9 2 9 C0.4375 6.1875 0.4375 6.1875 -1 3 C-0.67 2.01 -0.34 1.02 0 0 Z " fill="#6AB781" transform="translate(48,359)"/>
<path d="M0 0 C1.32 0.66 2.64 1.32 4 2 C-6.37357631 7.55580866 -6.37357631 7.55580866 -12 8 C-10 5 -10 5 -8.0546875 4.48828125 C-7.33539063 4.43027344 -6.61609375 4.37226563 -5.875 4.3125 C-4.59625 4.209375 -3.3175 4.10625 -2 4 C-1.67 3.01 -1.34 2.02 -1 1 C-0.67 0.67 -0.34 0.34 0 0 Z " fill="#72B887" transform="translate(347,458)"/>
<path d="M0 0 C2.3431213 0.25561323 4.67843403 0.59270772 7 1 C7.33 1.66 7.66 2.32 8 3 C8.99 3.33 9.98 3.66 11 4 C11 5.32 11 6.64 11 8 C7.88626628 6.50079488 4.87771795 4.91847864 2 3 C2 2.34 2 1.68 2 1 C1.34 0.67 0.68 0.34 0 0 Z " fill="#64B17C" transform="translate(108,432)"/>
<path d="M0 0 C2.31 0.66 4.62 1.32 7 2 C7 4.64 7 7.28 7 10 C3.60582235 6.87378374 1.3937282 4.43458973 0 0 Z " fill="#6ABC82" transform="translate(56,375)"/>
<path d="M0 0 C0.66 0 1.32 0 2 0 C1.67 0.99 1.34 1.98 1 3 C0.67 2.01 0.34 1.02 0 0 Z M-4 2 C0.47200388 3.21963742 2.90144153 4.56945312 6 8 C6.66 8.33 7.32 8.66 8 9 C7.67 9.99 7.34 10.98 7 12 C2.53002609 9.57344274 -1.67440245 6.65119511 -4 2 Z " fill="#E45222" transform="translate(113,194)"/>
<path d="M0 0 C0.33 0.99 0.66 1.98 1 3 C0.21625 3.763125 -0.5675 4.52625 -1.375 5.3125 C-4.07257717 7.90891805 -4.07257717 7.90891805 -6 11 C-6.99 10.34 -7.98 9.68 -9 9 C-6.03 6.03 -3.06 3.06 0 0 Z " fill="#81AAE7" transform="translate(348,348)"/>
<path d="M0 0 C1.98 0.99 1.98 0.99 4 2 C4 2.66 4 3.32 4 4 C4.680625 4.20625 5.36125 4.4125 6.0625 4.625 C9.97009851 6.45408866 12.83857939 9.10279034 16 12 C12.04080007 12 10.61197693 10.56639595 7.4375 8.25 C6.46683594 7.55390625 5.49617188 6.8578125 4.49609375 6.140625 C2.15593279 4.1337264 1.08010982 2.83768497 0 0 Z " fill="#FDA520" transform="translate(96,187)"/>
<path d="M0 0 C0.99 0.66 1.98 1.32 3 2 C3 2.66 3 3.32 3 4 C2.34 4 1.68 4 1 4 C1 4.66 1 5.32 1 6 C-0.375 7.625 -0.375 7.625 -2 9 C-2.66 9 -3.32 9 -4 9 C-4 9.66 -4 10.32 -4 11 C-4.66 11 -5.32 11 -6 11 C-6.33 9.68 -6.66 8.36 -7 7 C-5.68 7 -4.36 7 -3 7 C-2.67 5.68 -2.34 4.36 -2 3 C-1.34 3.33 -0.68 3.66 0 4 C0 2.68 0 1.36 0 0 Z " fill="#E27A71" transform="translate(361,118)"/>
<path d="M0 0 C2 1.375 2 1.375 4 3 C4 3.66 4 4.32 4 5 C3.34 5 2.68 5 2 5 C1.67 5.99 1.34 6.98 1 8 C0.34 8 -0.32 8 -1 8 C-1 8.66 -1 9.32 -1 10 C-1.66 10 -2.32 10 -3 10 C-3.33 10.66 -3.66 11.32 -4 12 C-4 10.35 -4 8.7 -4 7 C-2.68 7 -1.36 7 0 7 C0 4.69 0 2.38 0 0 Z " fill="#E48A85" transform="translate(401,76)"/>
<path d="M0 0 C4.27878027 2.03751441 8.11282869 4.31600076 12 7 C9 8 9 8 5 8 C5 7.34 5 6.68 5 6 C4.34 6 3.68 6 3 6 C0 2.53846154 0 2.53846154 0 0 Z " fill="#E1706B" transform="translate(363,48)"/>
<path d="M0 0 C1.485 0.99 1.485 0.99 3 2 C3 2.66 3 3.32 3 4 C3.5775 4.226875 4.155 4.45375 4.75 4.6875 C7.5663661 6.33038023 9.08077114 8.39533227 11 11 C8.36 10.34 5.72 9.68 3 9 C3.33 7.68 3.66 6.36 4 5 C3.01 5 2.02 5 1 5 C0.67 3.35 0.34 1.7 0 0 Z " fill="#6BBA81" transform="translate(150,343)"/>
<path d="M0 0 C0.66 0.33 1.32 0.66 2 1 C0.02 5.95 -1.96 10.9 -4 16 C-5.15941038 12.52176885 -4.70820884 10.54104422 -4 7 C-3.34 7 -2.68 7 -2 7 C-2.061875 5.824375 -2.061875 5.824375 -2.125 4.625 C-2 2 -2 2 0 0 Z " fill="#8BABE7" transform="translate(457,339)"/>
<path d="M0 0 C0.33 0.66 0.66 1.32 1 2 C0.67 2.66 0.34 3.32 0 4 C-0.66 4 -1.32 4 -2 4 C-2.103125 4.763125 -2.20625 5.52625 -2.3125 6.3125 C-3.04364039 9.17059424 -3.76951913 10.15742885 -6 12 C-6 10.35 -6 8.7 -6 7 C-5.34 7 -4.68 7 -4 7 C-4 5.35 -4 3.7 -4 2 C-2.68 1.34 -1.36 0.68 0 0 Z " fill="#E37D76" transform="translate(133,179)"/>
<path d="M0 0 C5.71658336 -0.45732667 8.48649253 0.47726246 13 4 C9.57056481 5.18771723 7.62215325 4.80226223 4.25 3.5625 C3.45078125 3.27503906 2.6515625 2.98757812 1.828125 2.69140625 C1.22484375 2.46324219 0.6215625 2.23507813 0 2 C0 1.34 0 0.68 0 0 Z " fill="#DF776E" transform="translate(285,115)"/>
<path d="M0 0 C0 3 0 3 -1 6 C-1.639375 6.28875 -2.27875 6.5775 -2.9375 6.875 C-5.71680854 8.39098648 -6.07115981 10.05867273 -7 13 C-7.99 12.34 -8.98 11.68 -10 11 C-6.7 7.37 -3.4 3.74 0 0 Z " fill="#E4817A" transform="translate(81,92)"/>
<path d="M0 0 C1.32 0.33 2.64 0.66 4 1 C4 1.99 4 2.98 4 4 C4.928125 4.0928125 4.928125 4.0928125 5.875 4.1875 C8 5 8 5 9.25 7.5625 C9.4975 8.366875 9.745 9.17125 10 10 C9.01 10 8.02 10 7 10 C5.17578125 8.06640625 5.17578125 8.06640625 3.3125 5.5625 C2.68988281 4.73878906 2.06726563 3.91507812 1.42578125 3.06640625 C0 1 0 1 0 0 Z " fill="#77BC8C" transform="translate(68,392)"/>
<path d="M0 0 C0.598125 0.309375 1.19625 0.61875 1.8125 0.9375 C4.08956772 2.10209704 4.08956772 2.10209704 7 3 C10.01041078 5.78462997 12.64030627 8.64675101 15 12 C11.88256767 10.49901406 8.84498177 8.97568178 6 7 C6 6.01 6 5.02 6 4 C5.38125 3.896875 4.7625 3.79375 4.125 3.6875 C2 3 2 3 0 0 Z " fill="#3D92C0" transform="translate(346,380)"/>
<path d="M0 0 C-1.8125 2.5 -1.8125 2.5 -4 5 C-4.99 5 -5.98 5 -7 5 C-7 5.66 -7 6.32 -7 7 C-7.66 7 -8.32 7 -9 7 C-8.6875 4.625 -8.6875 4.625 -8 2 C-4.77208445 -0.1519437 -3.71599191 -0.20086443 0 0 Z " fill="#E0C018" transform="translate(75,329)"/>
<path d="M0 0 C1.75140143 0.45294865 3.50107344 0.91258748 5.25 1.375 C6.71179688 1.75785156 6.71179688 1.75785156 8.203125 2.1484375 C10.65837303 2.89598509 12.75617405 3.77123817 15 5 C11.82760295 6.05746568 10.68213603 5.97544501 7.5 5.3125 C6.33984375 5.09013672 6.33984375 5.09013672 5.15625 4.86328125 C2.46933597 3.78754212 1.52985641 2.40756249 0 0 Z " fill="#76BD8A" transform="translate(205,380)"/>
<path d="M0 0 C-0.8125 1.9375 -0.8125 1.9375 -2 4 C-5.68890899 5.22963633 -9.13699206 5.55670401 -13 6 C-11.59719304 3.19438607 -9.9490995 2.99319493 -7.0625 1.875 C-6.16660156 1.52179688 -5.27070313 1.16859375 -4.34765625 0.8046875 C-2 0 -2 0 0 0 Z " fill="#78BD8A" transform="translate(319,372)"/>
<path d="M0 0 C0.66 0 1.32 0 2 0 C2 0.99 2 1.98 2 3 C2.66 3 3.32 3 4 3 C4.33 6.63 4.66 10.26 5 14 C2.21139503 10.28186004 1.5477646 9.04846999 0.8125 4.75 C0.65394531 3.85796875 0.49539062 2.9659375 0.33203125 2.046875 C0.22246094 1.37140625 0.11289062 0.6959375 0 0 Z " fill="#F2D166" transform="translate(29,317)"/>
<path d="M0 0 C4.30067708 0.90014171 6.3884892 2.09828697 8.875 5.625 C9.57625 6.73875 10.2775 7.8525 11 9 C7.03935893 7.25731793 3.25563451 4.85325271 0 2 C0 1.34 0 0.68 0 0 Z " fill="#3A9D85" transform="translate(358,391)"/>
<path d="M0 0 C0.66 0 1.32 0 2 0 C1.690625 0.598125 1.38125 1.19625 1.0625 1.8125 C-0.10209704 4.08956772 -0.10209704 4.08956772 -1 7 C-1.66 7 -2.32 7 -3 7 C-3.66 8.32 -4.32 9.64 -5 11 C-5.8125 8.8125 -5.8125 8.8125 -6 6 C-3.625 3.25 -3.625 3.25 -1 1 C-0.67 0.67 -0.34 0.34 0 0 Z " fill="#72A0E5" transform="translate(434,385)"/>
<path d="M0 0 C1.65 0.33 3.3 0.66 5 1 C3.6875 3.5 3.6875 3.5 2 6 C1.01 6 0.02 6 -1 6 C-1.33 5.01 -1.66 4.02 -2 3 C-1.34 2.01 -0.68 1.02 0 0 Z " fill="#E6645E" transform="translate(140,162)"/>
<path d="M0 0 C1.32 0.66 2.64 1.32 4 2 C-1.75 7 -1.75 7 -4 7 C-4 6.01 -4 5.02 -4 4 C-4.66 3.34 -5.32 2.68 -6 2 C-4.02 2 -2.04 2 0 2 C0 1.34 0 0.68 0 0 Z " fill="#E4736B" transform="translate(167,137)"/>
<path d="M0 0 C1.125 3.75 1.125 3.75 0 6 C-0.66 6 -1.32 6 -2 6 C-2 6.66 -2 7.32 -2 8 C-2.66 8 -3.32 8 -4 8 C-4.66 6.35 -5.32 4.7 -6 3 C-3 2 -3 2 0 3 C0 2.01 0 1.02 0 0 Z " fill="#E16458" transform="translate(396,84)"/>
<path d="M0 0 C0 0.66 0 1.32 0 2 C-0.66 2 -1.32 2 -2 2 C-2 2.66 -2 3.32 -2 4 C-3.32 4 -4.64 4 -6 4 C-6 4.99 -6 5.98 -6 7 C-8.31 7.33 -10.62 7.66 -13 8 C-11.06745228 5.9754262 -9.36841312 4.57894208 -7 3 C-6.01 3 -5.02 3 -4 3 C-4 2.34 -4 1.68 -4 1 C-2 0 -2 0 0 0 Z " fill="#E4877F" transform="translate(133,51)"/>
<path d="M0 0 C0.66 1.32 1.32 2.64 2 4 C1.01 4 0.02 4 -1 4 C-0.67 5.98 -0.34 7.96 0 10 C-0.66 10 -1.32 10 -2 10 C-2 10.99 -2 11.98 -2 13 C-2.66 13 -3.32 13 -4 13 C-4 11.35 -4 9.7 -4 8 C-3.34 8 -2.68 8 -2 8 C-2 6.35 -2 4.7 -2 3 C-1.34 3 -0.68 3 0 3 C0 2.01 0 1.02 0 0 Z " fill="#F6BC15" transform="translate(38,161)"/>
<path d="M0 0 C0.66 0 1.32 0 2 0 C2 0.66 2 1.32 2 2 C2.66 2 3.32 2 4 2 C5.0625 3.8125 5.0625 3.8125 6 6 C5.67 6.99 5.34 7.98 5 9 C4.67 8.01 4.34 7.02 4 6 C2.06669397 4.90833725 2.06669397 4.90833725 0 4 C-0.66 3.34 -1.32 2.68 -2 2 C-1.34 2 -0.68 2 0 2 C0 1.34 0 0.68 0 0 Z " fill="#E26C60" transform="translate(328,134)"/>
<path d="M0 0 C2.475 0.495 2.475 0.495 5 1 C5 1.66 5 2.32 5 3 C5.598125 3.2475 6.19625 3.495 6.8125 3.75 C9.28647521 5.16370012 10.43370255 6.65055383 12 9 C8.98472262 7.59422879 6.4052059 5.93873852 3.75 3.9375 C3.04359375 3.41027344 2.3371875 2.88304687 1.609375 2.33984375 C1.07828125 1.89769531 0.5471875 1.45554687 0 1 C0 0.67 0 0.34 0 0 Z " fill="#3F91C0" transform="translate(366,396)"/>
<path d="M0 0 C-0.74324341 2.39489543 -1.47057354 3.70777616 -3.69140625 4.93359375 C-5.44073501 5.67219923 -7.21934149 6.34049685 -9 7 C-7.4576387 2.93377477 -4.5679954 0 0 0 Z " fill="#53A53C" transform="translate(80,327)"/>
<path d="M0 0 C2.62527189 -0.05382106 5.24944713 -0.09358313 7.875 -0.125 C8.62136719 -0.14175781 9.36773437 -0.15851563 10.13671875 -0.17578125 C12.09194461 -0.1933959 14.04742021 -0.10320189 16 0 C16.66 0.66 17.32 1.32 18 2 C17.34 2.66 16.68 3.32 16 4 C15.34 4 14.68 4 14 4 C14 3.01 14 2.02 14 1 C9.38 1 4.76 1 0 1 C0 0.67 0 0.34 0 0 Z " fill="#5F93EB" transform="translate(358,208)"/>
<path d="M0 0 C1.32 0.66 2.64 1.32 4 2 C3.67 3.32 3.34 4.64 3 6 C2.34 6 1.68 6 1 6 C0.67 6.99 0.34 7.98 0 9 C-0.12375 8.360625 -0.2475 7.72125 -0.375 7.0625 C-0.684375 6.0415625 -0.684375 6.0415625 -1 5 C-1.66 4.67 -2.32 4.34 -3 4 C-1.68 4 -0.36 4 1 4 C0.67 2.68 0.34 1.36 0 0 Z " fill="#E36E64" transform="translate(147,153)"/>
<path d="M0 0 C0.66 0 1.32 0 2 0 C2.33 1.32 2.66 2.64 3 4 C2.34 4 1.68 4 1 4 C1 4.66 1 5.32 1 6 C0.34 6 -0.32 6 -1 6 C-1 6.66 -1 7.32 -1 8 C-3.86724686 7.42655063 -4.8614515 7.1385485 -7 5 C-4.69 5 -2.38 5 0 5 C0 3.35 0 1.7 0 0 Z " fill="#E1857E" transform="translate(341,138)"/>
<path d="M0 0 C0 0.66 0 1.32 0 2 C-1.59860649 2.55786268 -3.20417905 3.09579568 -4.8125 3.625 C-5.70582031 3.92664063 -6.59914062 4.22828125 -7.51953125 4.5390625 C-10 5 -10 5 -13 3 C-11.2092015 2.49689942 -9.41733089 1.99761372 -7.625 1.5 C-6.62726563 1.2215625 -5.62953125 0.943125 -4.6015625 0.65625 C-2 0 -2 0 0 0 Z " fill="#E68480" transform="translate(193,26)"/>
<path d="M0 0 C0.33 0 0.66 0 1 0 C1 2.31 1 4.62 1 7 C0.01 7 -0.98 7 -2 7 C-2 7.66 -2 8.32 -2 9 C-2.99 9 -3.98 9 -5 9 C-4 7 -3 5 -2 3 C-1.34 3 -0.68 3 0 3 C0 2.01 0 1.02 0 0 Z " fill="#80AAE6" transform="translate(358,334)"/>
<path d="M0 0 C0.99 0.33 1.98 0.66 3 1 C1.35 3.64 -0.3 6.28 -2 9 C-2.66 8.67 -3.32 8.34 -4 8 C-4 7.34 -4 6.68 -4 6 C-3.34 6 -2.68 6 -2 6 C-2 4.35 -2 2.7 -2 1 C-1.34 0.67 -0.68 0.34 0 0 Z " fill="#E27D77" transform="translate(137,170)"/>
<path d="M0 0 C0.33 1.32 0.66 2.64 1 4 C-4.2734375 7.22265625 -4.2734375 7.22265625 -6 8 C-6.66 7.67 -7.32 7.34 -8 7 C-5.36 4.69 -2.72 2.38 0 0 Z " fill="#E4817B" transform="translate(103,71)"/>
<path d="M0 0 C-1 1 -1 1 -3.5625 1.0625 C-4.7690625 1.0315625 -4.7690625 1.0315625 -6 1 C-5.67 1.99 -5.34 2.98 -5 4 C-7.97 4 -10.94 4 -14 4 C-11.37350692 2.24900461 -9.38191413 1.30690675 -6.4375 0.3125 C-5.65246094 0.04050781 -4.86742187 -0.23148438 -4.05859375 -0.51171875 C-2 -1 -2 -1 0 0 Z " fill="#E38178" transform="translate(180,31)"/>
<path d="M0 0 C5.50366792 -0.32374517 9.43672206 -0.53286034 14 3 C11.01316063 4.49341969 9.04839022 3.40648676 5.875 2.5625 C4.77929688 2.27503906 3.68359375 1.98757813 2.5546875 1.69140625 C1.71164063 1.46324219 0.86859375 1.23507812 0 1 C0 0.67 0 0.34 0 0 Z " fill="#81C195" transform="translate(183,471)"/>
<path d="M0 0 C2.97 0.495 2.97 0.495 6 1 C3.44008376 3.01136276 0.95409701 4.62845496 -2 6 C-2.33 5.01 -2.66 4.02 -3 3 C-2.01 3 -1.02 3 0 3 C0 2.01 0 1.02 0 0 Z " fill="#6AB881" transform="translate(356,453)"/>
<path d="M0 0 C0.66 0 1.32 0 2 0 C2 0.66 2 1.32 2 2 C2.99 1.67 3.98 1.34 5 1 C5 1.66 5 2.32 5 3 C3.37373596 4.38232443 1.7074998 5.71937515 0 7 C-0.38133299 5.0085944 -0.71325582 3.00720923 -1 1 C-0.67 0.67 -0.34 0.34 0 0 Z " fill="#719FEF" transform="translate(415,406)"/>
<path d="M0 0 C0.66 0 1.32 0 2 0 C2 0.66 2 1.32 2 2 C2.99 2 3.98 2 5 2 C5 1.34 5 0.68 5 0 C5.99 0.33 6.98 0.66 8 1 C7.67 2.65 7.34 4.3 7 6 C2.32307692 4.52307692 2.32307692 4.52307692 0.6875 1.875 C0.460625 1.25625 0.23375 0.6375 0 0 Z " fill="#418BD4" transform="translate(329,366)"/>
<path d="M0 0 C0.33 0 0.66 0 1 0 C1.19294408 4.82360189 0.75747614 8.49646738 -1 13 C-1.33 13 -1.66 13 -2 13 C-2.16682272 8.07872966 -2.24828052 4.49656104 0 0 Z " fill="#739CE3" transform="translate(462,320)"/>
<path d="M0 0 C0.66 0.33 1.32 0.66 2 1 C-1.32307692 6.78461538 -1.32307692 6.78461538 -4.75 7.875 C-5.4925 7.91625 -6.235 7.9575 -7 8 C-5.625 6 -5.625 6 -4 4 C-3.34 4 -2.68 4 -2 4 C-1.34 2.68 -0.68 1.36 0 0 Z " fill="#64A83B" transform="translate(116,296)"/>
<path d="M0 0 C0 0.66 0 1.32 0 2 C-4.29 1.67 -8.58 1.34 -13 1 C-13 0.67 -13 0.34 -13 0 C-11.58456585 -0.19658808 -10.16755969 -0.38187546 -8.75 -0.5625 C-7.96109375 -0.66691406 -7.1721875 -0.77132813 -6.359375 -0.87890625 C-3.99467126 -1.00027349 -2.2488963 -0.69633257 0 0 Z " fill="#42A05A" transform="translate(228,477)"/>
<path d="M0 0 C-0.33 0.99 -0.66 1.98 -1 3 C-4.96 3 -8.92 3 -13 3 C-12.67 2.34 -12.34 1.68 -12 1 C-8.01624339 -0.17169312 -4.12560776 -0.08089427 0 0 Z " fill="#63B87A" transform="translate(309,379)"/>
<path d="M0 0 C3.3 1.98 6.6 3.96 10 6 C7.3333581 7.33332095 5.83319697 6.67102033 3 6 C3 5.01 3 4.02 3 3 C2.01 3 1.02 3 0 3 C0 2.01 0 1.02 0 0 Z " fill="#7FBB90" transform="translate(176,365)"/>
<path d="M0 0 C0.66 0 1.32 0 2 0 C0.80100302 3.0831351 -0.47700477 6.06279492 -2 9 C-2.33 9 -2.66 9 -3 9 C-3 6.69 -3 4.38 -3 2 C-2.34 2 -1.68 2 -1 2 C-0.67 1.34 -0.34 0.68 0 0 Z " fill="#76A0E9" transform="translate(447,362)"/>
<path d="M0 0 C4.43458973 1.3937282 6.87378374 3.60582235 10 7 C5.94654898 7 4.1784671 5.41839888 1 3 C0.67 2.01 0.34 1.02 0 0 Z " fill="#E25E1A" transform="translate(87,179)"/>
<path d="M0 0 C2.64 0 5.28 0 8 0 C8 0.99 8 1.98 8 3 C8.66 3.33 9.32 3.66 10 4 C8.51882199 3.71872579 7.04006751 3.42466268 5.5625 3.125 C4.73878906 2.96257812 3.91507813 2.80015625 3.06640625 2.6328125 C2.38449219 2.42398437 1.70257813 2.21515625 1 2 C0.67 1.34 0.34 0.68 0 0 Z " fill="#85C59A" transform="translate(172,467)"/>
<path d="M0 0 C2.31 0 4.62 0 7 0 C7 0.99 7 1.98 7 3 C7.99 3 8.98 3 10 3 C10 3.66 10 4.32 10 5 C8.51800098 4.55090939 7.03944764 4.09043436 5.5625 3.625 C4.73878906 3.36976563 3.91507813 3.11453125 3.06640625 2.8515625 C1 2 1 2 0 0 Z " fill="#7DBD8C" transform="translate(148,457)"/>
<path d="M0 0 C1.65 0.33 3.3 0.66 5 1 C3.35 2.98 1.7 4.96 0 7 C-1.33332095 4.3333581 -0.67102033 2.83319697 0 0 Z " fill="#80A7EC" transform="translate(410,412)"/>
<path d="M0 0 C0.66 0 1.32 0 2 0 C1.42415568 2.38564077 0.77772405 4.66682784 0 7 C-1.32 7.33 -2.64 7.66 -4 8 C-2.68 5.36 -1.36 2.72 0 0 Z " fill="#DB6A65" transform="translate(55,125)"/>
<path d="M0 0 C1.65 0 3.3 0 5 0 C1.63576723 2.96052484 -1.69159287 3.92289822 -6 5 C-6.33 4.34 -6.66 3.68 -7 3 C-3.535 2.505 -3.535 2.505 0 2 C0 1.34 0 0.68 0 0 Z " fill="#E48C88" transform="translate(196,121)"/>
<path d="M0 0 C0.99 0.33 1.98 0.66 3 1 C3 1.99 3 2.98 3 4 C2.34 4 1.68 4 1 4 C1 4.66 1 5.32 1 6 C0.34 6 -0.32 6 -1 6 C-1.33 6.66 -1.66 7.32 -2 8 C-2 6.35 -2 4.7 -2 3 C-1.34 3 -0.68 3 0 3 C0 2.01 0 1.02 0 0 Z " fill="#E37972" transform="translate(382,97)"/>
<path d="M0 0 C4.55737263 0.43820891 7.57653445 0.85041169 11 4 C9.54119891 3.85892253 8.08296449 3.71197585 6.625 3.5625 C5.40683594 3.44068359 5.40683594 3.44068359 4.1640625 3.31640625 C2 3 2 3 0 2 C0 1.34 0 0.68 0 0 Z " fill="#E3847F" transform="translate(321,30)"/>
<path d="M0 0 C1.98 0 3.96 0 6 0 C2.57653445 3.14958831 -0.44262737 3.56179109 -5 4 C-5 3.01 -5 2.02 -5 1 C-3.35 1 -1.7 1 0 1 C0 0.67 0 0.34 0 0 Z " fill="#7DBF8F" transform="translate(329,466)"/>
<path d="M0 0 C1.0625 1.8125 1.0625 1.8125 2 4 C1.67 4.99 1.34 5.98 1 7 C-0.65 5.02 -2.3 3.04 -4 1 C-2.68 0.67 -1.36 0.34 0 0 Z " fill="#5BB072" transform="translate(93,414)"/>
<path d="M0 0 C3.88862987 1.26117725 5.89375599 2.45264167 8 6 C8 6.66 8 7.32 8 8 C7.34 8 6.68 8 6 8 C6 7.34 6 6.68 6 6 C5.34 6 4.68 6 4 6 C2.61061923 4.03852126 1.2739589 2.03833424 0 0 Z " fill="#6CB480" transform="translate(81,407)"/>
<path d="M0 0 C0.66 0 1.32 0 2 0 C1.6875 3.375 1.6875 3.375 1 7 C0.01 7.66 -0.98 8.32 -2 9 C-1.41196203 5.97580475 -0.77321882 2.98241547 0 0 Z " fill="#7EA6E8" transform="translate(371,305)"/>
<path d="M0 0 C-1.1875 1.5 -1.1875 1.5 -3 3 C-5.6875 3.1875 -5.6875 3.1875 -8 3 C-8 2.34 -8 1.68 -8 1 C-5.29120665 -0.35439668 -2.99066732 -0.06501451 0 0 Z " fill="#DF6961" transform="translate(186,128)"/>
<path d="M0 0 C1.32 0 2.64 0 4 0 C3.67 1.32 3.34 2.64 3 4 C2.34 4 1.68 4 1 4 C1 4.66 1 5.32 1 6 C0.34 5.67 -0.32 5.34 -1 5 C-0.67 3.35 -0.34 1.7 0 0 Z " fill="#E07C72" transform="translate(371,108)"/>
<path d="M0 0 C0.66 0 1.32 0 2 0 C1.8125 1.875 1.8125 1.875 1 4 C-1.5625 5.25 -1.5625 5.25 -4 6 C-2.84826645 3.53199953 -1.95216435 1.95216435 0 0 Z " fill="#E0887F" transform="translate(91,81)"/>
<path d="M0 0 C0.33 0.66 0.66 1.32 1 2 C0.67 2.66 0.34 3.32 0 4 C-0.99 4 -1.98 4 -3 4 C-3 4.66 -3 5.32 -3 6 C-4.32 5.67 -5.64 5.34 -7 5 C-4.69 3.35 -2.38 1.7 0 0 Z " fill="#E57E73" transform="translate(119,59)"/>
<path d="M0 0 C2.475 0.495 2.475 0.495 5 1 C5.33 2.32 5.66 3.64 6 5 C2.83884224 3.63016497 2.0072908 3.0109362 0 0 Z " fill="#7BBF8E" transform="translate(95,421)"/>
</svg>
